<svg width="101" height="100" viewBox="0 0 101 100" fill="none" xmlns="http://www.w3.org/2000/svg">
<g clip-path="url(#clip0_518_1833)">
<path d="M50.8484 41.8684C56.6444 43.068 61.4529 48.4388 62.6616 54.1563C63.4707 57.9836 62.0419 61.4126 65.671 64.3834C68.6234 66.8006 70.458 67.7369 72.1939 71.468C78.1467 84.2706 63.0549 99.4971 51.5022 89.9842C45.812 85.2994 43.7066 82.2925 35.7085 80.9425C27.7871 79.6072 20.4608 84.5767 14.4723 76.4099C8.06244 67.6703 13.1334 54.7701 23.7344 52.5505C27.4125 51.7799 30.1393 53.236 33.3288 50.4532C34.8827 49.0962 35.7494 47.2674 37.3522 45.8517C40.6048 42.9807 46.5533 40.9776 50.8502 41.8675L50.8484 41.8684ZM50.3189 44.571C46.6513 43.8144 41.5931 45.5794 38.9049 48.1443C36.9698 49.99 36.0759 52.1907 33.6007 53.6816C30.2608 55.6937 27.6939 54.523 24.2786 55.247C10.6504 58.1371 11.7758 78.7197 24.3057 78.6398C25.8847 78.6291 27.7411 78.121 29.38 78.0091C35.6097 77.5842 41.1513 78.8048 46.4731 82.1367C51.935 85.5564 55.1405 92.4025 62.6763 89.5551C70.3099 86.6712 73.2365 77.0549 68.3847 70.4334C65.5127 66.5148 61.6965 66.4277 60.4912 60.8038C60.0606 58.7913 60.401 56.8182 60.0057 54.8337C59.061 50.0913 55.1308 45.5627 50.3189 44.571Z" fill="#D05136"/>
<path d="M25.7461 21.9476C32.8828 23.3749 33.2759 35.6946 31.6311 41.178C29.7632 47.4095 23.3032 47.8948 18.1062 45.6328C7.07688 40.8317 15.8402 19.9657 25.7447 21.9472L25.7461 21.9476ZM25.0498 24.5895C18.6355 23.553 12.0907 38.2621 18.0292 42.4295C19.7025 43.6042 22.0198 44.009 24.0375 44.0347C28.3314 44.0889 29.0138 41.4394 29.4324 37.7013C29.847 33.9978 29.8549 25.3669 25.0493 24.5909L25.0498 24.5895Z" fill="#D05136"/>
<path d="M84.3243 41.1625C95.9045 43.2725 90.7784 68.2185 78.2961 65.3794C73.2909 64.2407 68.1614 60.2999 69.7766 54.5858C71.1639 49.6795 78.4814 40.0969 84.3234 41.1607L84.3243 41.1625ZM83.7918 43.8611C79.8692 43.2852 74.851 50.2141 73.2943 53.2786C71.2932 57.2189 71.9201 59.2928 75.7525 61.4088C82.5363 65.1546 86.2084 60.7156 87.7725 54.2038C88.5882 50.8095 88.1388 44.4987 83.7918 43.8611Z" fill="#D05136"/>
<path d="M50.3167 8.61407C58.7472 10.1597 56.8265 21.8652 54.4899 27.6502C51.7662 34.394 45.9741 34.6145 40.3064 31.081C29.9263 24.6082 41.4524 6.99035 50.3167 8.61407ZM49.7873 11.3167C43.7702 10.2761 34.3062 23.7676 41.479 28.5909C44.0862 30.3438 48.558 31.8481 50.7566 28.806C53.3589 25.2063 56.414 12.4647 49.7869 11.318L49.7873 11.3167Z" fill="#D05136"/>
<path d="M71.9379 15.7074C81.3939 17.4387 81.4787 34.5064 74.6663 39.1113C69.7969 42.4018 59.6087 39.618 59.23 33.0601C58.9109 27.5134 64.9494 14.4288 71.9365 15.707L71.9379 15.7074ZM71.4067 18.4065C68.3486 17.9513 65.6732 22.1304 64.4815 24.4754C63.2326 26.9315 60.76 32.5077 62.6327 34.9769C64.4276 37.3444 70.2019 38.619 72.833 37.0732C78.1027 33.9768 78.3169 19.4355 71.4067 18.4065Z" fill="#D05136"/>
<path d="M50.3204 44.5712C55.1319 45.5642 59.0625 50.0914 60.0072 54.8338C60.4025 56.8183 60.062 58.7914 60.4927 60.804C61.698 66.4278 65.5151 66.5167 68.3862 70.4335C73.2384 77.0537 70.3114 86.6713 62.6778 89.5552C55.142 92.4026 51.9361 85.5579 46.4746 82.1368C41.1528 78.8049 35.6116 77.583 29.3815 78.0092C27.7426 78.1212 25.8862 78.6292 24.3072 78.6399C11.7773 78.7198 10.6506 58.1368 24.2801 55.2471C27.6954 54.5231 30.2623 55.6938 33.6022 53.6817C36.0774 52.1909 36.9713 49.9901 38.9064 48.1444C41.5946 45.5795 46.6528 43.8145 50.3204 44.5712Z" fill="#D05136"/>
<path d="M25.0492 24.5898C29.8535 25.3654 29.8469 33.9967 29.4323 37.7002C29.0137 41.4383 28.3313 44.0878 24.0374 44.0336C22.0197 44.0079 19.7011 43.6027 18.0291 42.4284C12.0902 38.2624 18.6368 23.5524 25.0497 24.5884L25.0492 24.5898Z" fill="#D05136"/>
<path d="M83.7933 43.8614C88.1399 44.5003 88.5884 50.8093 87.7741 54.204C86.2099 60.7159 82.5391 65.1553 75.754 61.409C71.9216 59.2931 71.2947 57.2191 73.2958 53.2789C74.8526 50.2144 79.8707 43.2854 83.7933 43.8614Z" fill="#D05136"/>
<path d="M49.7844 11.3166C56.4115 12.4633 53.3551 25.2045 50.7541 28.8046C48.5551 31.8481 44.0837 30.3424 41.4765 28.5895C34.3032 23.7676 43.7677 10.2747 49.7848 11.3153L49.7844 11.3166Z" fill="#D05136"/>
<path d="M71.4075 18.4065C78.3192 19.4359 78.1031 33.9782 72.8339 37.0733C70.2028 38.619 64.4284 37.3444 62.6336 34.9769C60.7609 32.5077 63.2339 26.9302 64.4824 24.4754C65.6737 22.1318 68.3481 17.9509 71.4075 18.4065Z" fill="#D05136"/>
</g>
<defs>
<clipPath id="clip0_518_1833">
<rect width="80" height="78" fill="white" transform="translate(24.314) rotate(18.1628)"/>
</clipPath>
</defs>
</svg>
