<svg width="78" height="78" viewBox="0 0 78 78" fill="none" xmlns="http://www.w3.org/2000/svg">
<path d="M72.9906 34.4375L66.375 27.8264V11.625C66.375 9.11562 64.3219 7.0625 61.8125 7.0625H57.25C54.7406 7.0625 52.6875 9.11562 52.6875 11.625V14.1481L43.5625 5.03219C42.3169 3.85506 41.1763 2.5 39 2.5C36.8237 2.5 35.6831 3.85506 34.4375 5.03219L5.00938 34.4375C3.58588 35.9203 2.5 37.0016 2.5 39C2.5 41.5687 4.471 43.5625 7.0625 43.5625H11.625V70.9375C11.625 73.4469 13.6781 75.5 16.1875 75.5H25.3125C27.8323 75.5 29.875 73.4573 29.875 70.9375V52.6875C29.875 50.1781 31.9281 48.125 34.4375 48.125H43.5625C46.0719 48.125 48.125 50.1781 48.125 52.6875V70.9375C48.125 73.4573 47.8865 75.5 50.4062 75.5H61.8125C64.3219 75.5 66.375 73.4469 66.375 70.9375V43.5625H70.9375C73.529 43.5625 75.5 41.5687 75.5 39C75.5 37.0016 74.4141 35.9203 72.9906 34.4375Z" stroke="#654532" stroke-width="5" stroke-linejoin="round"/>
</svg>
