<svg width="38" height="36" viewBox="0 0 38 36" fill="none" xmlns="http://www.w3.org/2000/svg">
<g clip-path="url(#clip0_511_1082)">
<path d="M19 0C8.50668 0 0 8.05896 0 18C0 26.4413 6.13472 33.5246 14.4104 35.4701V23.5008H10.4926V18H14.4104V15.6298C14.4104 9.50328 17.3371 6.6636 23.6862 6.6636C24.89 6.6636 26.9671 6.88752 27.8168 7.11072V12.0967C27.3684 12.0521 26.5894 12.0298 25.6219 12.0298C22.5066 12.0298 21.3028 13.1479 21.3028 16.0546V18H27.509L26.4427 23.5008H21.3028V35.8682C30.7108 34.7918 38.0008 27.203 38.0008 18C38 8.05896 29.4933 0 19 0Z" fill="black"/>
</g>
<defs>
<clipPath id="clip0_511_1082">
<rect width="38" height="36" fill="white"/>
</clipPath>
</defs>
</svg>
